<svg xmlns="http://www.w3.org/2000/svg" xmlns:xlink="http://www.w3.org/1999/xlink" viewBox="0 0 750 500"><defs><style>.cls-1{fill:url(#Degradado_sin_nombre_3);}.cls-2{fill:url(#Degradado_sin_nombre_2);}.cls-3{fill:url(#Degradado_sin_nombre_2-2);}.cls-4{fill:url(#Degradado_sin_nombre_2-3);}.cls-5{fill:url(#Degradado_sin_nombre_2-4);}.cls-6{fill:url(#Degradado_sin_nombre_2-5);}.cls-7{fill:url(#Degradado_sin_nombre_2-6);}.cls-8{fill:url(#Degradado_sin_nombre_2-7);}.cls-9{fill:url(#Degradado_sin_nombre_2-8);}.cls-10{fill:url(#Degradado_sin_nombre_2-9);}.cls-11{fill:url(#Degradado_sin_nombre_2-10);}.cls-12{fill:url(#Degradado_sin_nombre_2-11);}.cls-13{fill:url(#Degradado_sin_nombre_2-12);}</style><radialGradient id="Degradado_sin_nombre_3" cx="376.43" cy="248.72" r="429.19" gradientTransform="matrix(1, 0.01, -0.01, 0.77, 2.52, 52.76)" gradientUnits="userSpaceOnUse"><stop offset="0.02" stop-color="#2e34ba"/><stop offset="0.99" stop-color="#1a2246"/></radialGradient><radialGradient id="Degradado_sin_nombre_2" cx="-9.23" cy="55.66" r="262.93" gradientUnits="userSpaceOnUse"><stop offset="0.01" stop-color="#a2ff7b"/><stop offset="0.99" stop-color="#5495fc"/></radialGradient><radialGradient id="Degradado_sin_nombre_2-2" cx="461.29" cy="-5.9" r="256.13" gradientTransform="translate(311.56 969.22) rotate(-90)" xlink:href="#Degradado_sin_nombre_2"/><radialGradient id="Degradado_sin_nombre_2-3" cx="721.33" cy="219.69" r="245.9" gradientTransform="translate(311.56 969.22) rotate(-90)" xlink:href="#Degradado_sin_nombre_2"/><radialGradient id="Degradado_sin_nombre_2-4" cx="902.57" cy="-332.82" r="197.43" gradientTransform="translate(311.56 969.22) rotate(-90)" xlink:href="#Degradado_sin_nombre_2"/><radialGradient id="Degradado_sin_nombre_2-5" cx="519.96" cy="182.11" r="89.95" gradientTransform="translate(311.56 969.22) rotate(-90)" xlink:href="#Degradado_sin_nombre_2"/><radialGradient id="Degradado_sin_nombre_2-6" cx="706.39" cy="241.03" r="49.57" gradientTransform="translate(311.56 969.22) rotate(-90)" xlink:href="#Degradado_sin_nombre_2"/><radialGradient id="Degradado_sin_nombre_2-7" cx="580.28" cy="318.38" r="148.16" gradientTransform="translate(311.56 969.22) rotate(-90)" xlink:href="#Degradado_sin_nombre_2"/><radialGradient id="Degradado_sin_nombre_2-8" cx="252.1" cy="281.24" r="245.9" xlink:href="#Degradado_sin_nombre_2"/><radialGradient id="Degradado_sin_nombre_2-9" cx="67.53" cy="237.82" r="197.43" xlink:href="#Degradado_sin_nombre_2"/><radialGradient id="Degradado_sin_nombre_2-10" cx="234.59" cy="373.55" r="89.95" xlink:href="#Degradado_sin_nombre_2"/><radialGradient id="Degradado_sin_nombre_2-11" cx="388.57" cy="391.23" r="49.57" xlink:href="#Degradado_sin_nombre_2"/><radialGradient id="Degradado_sin_nombre_2-12" cx="111.06" cy="379.94" r="148.16" xlink:href="#Degradado_sin_nombre_2"/></defs><g id="Layer_2" data-name="Layer 2"><g id="BACKGROUND"><rect class="cls-1" width="750" height="500"/><path class="cls-2" d="M0,157.67V421.3c94.68-.56,171.21-62.83,171.21-135.28S94.68,158.23,0,157.67Z"/><path class="cls-3" d="M407.67,500H671.3c-.56-94.68-62.83-147.2-135.28-147.2S408.23,405.32,407.67,500Z"/><path class="cls-4" d="M643.46,500c-54.63-36.26-74.4-82.86-50.64-139.09,22.35-52.9,116.44-33.61,100.71-137.3C669.92,68,750,61.47,750,61.47V500Z"/><circle class="cls-5" cx="65.23" cy="54.05" r="34.25"/><circle class="cls-6" cx="533.07" cy="443.53" r="15.6"/><circle class="cls-7" cx="574.31" cy="259.67" r="8.6"/><path class="cls-8" d="M637.42,500S624.65,358.51,750,339.75V500Z"/><path class="cls-9" d="M0,393.46c36.26-54.63,82.86-74.4,139.09-50.64,52.9,22.35,33.61,116.44,137.3,100.71C432,419.92,438.53,500,438.53,500H0Z"/><circle class="cls-10" cx="80.12" cy="324.31" r="34.25"/><circle class="cls-11" cx="240.33" cy="412.95" r="15.6"/><circle class="cls-12" cx="391.73" cy="412.95" r="8.6"/><path class="cls-13" d="M0,387.42S141.49,374.65,160.25,500H0Z"/></g></g></svg>